<?xml version="1.0" encoding="utf-8"?>
<!-- Generator: Adobe Illustrator 16.0.0, SVG Export Plug-In . SVG Version: 6.00 Build 0)  -->
<!DOCTYPE svg PUBLIC "-//W3C//DTD SVG 1.1//EN" "http://www.w3.org/Graphics/SVG/1.1/DTD/svg11.dtd">
<svg version="1.1" id="Layer_1" xmlns="http://www.w3.org/2000/svg" xmlns:xlink="http://www.w3.org/1999/xlink" x="0px" y="0px"
	 width="550px" height="535px" viewBox="0 0 550 535" enable-background="new 0 0 550 535" xml:space="preserve">
<g id="Capa_1" display="none">
	<g display="inline">
		<path d="M526.474-1.408c0-10.911-4.995-20.953-13.703-27.549c-0.182-0.137-0.267-0.274-0.267-0.433s0.085-0.296,0.267-0.434
			c8.708-6.597,13.703-16.638,13.703-27.55s-4.994-20.952-13.7-27.547c-0.237-0.18-0.267-0.332-0.267-0.429
			c0-0.162,0.091-0.31,0.276-0.451c10.988-8.331,15.882-21.97,12.771-35.594c-2.89-12.646-12.926-22.682-25.572-25.568
			c-13.622-3.108-27.259,1.785-35.589,12.771c-0.142,0.187-0.289,0.277-0.45,0.277c-0.099,0-0.251-0.026-0.431-0.266
			c-6.596-8.706-16.636-13.699-27.546-13.699c-10.914,0-20.954,4.994-27.551,13.702c-0.274,0.362-0.592,0.364-0.866,0
			c-6.597-8.708-16.636-13.702-27.55-13.702c-10.912,0-20.952,4.994-27.549,13.702c-0.274,0.362-0.593,0.364-0.867,0
			c-6.596-8.708-16.638-13.702-27.549-13.702c-10.912,0-20.953,4.993-27.548,13.699c-0.18,0.237-0.332,0.266-0.429,0.266
			c-0.162,0-0.31-0.091-0.451-0.277c-8.331-10.985-21.969-15.879-35.589-12.771c-12.646,2.885-22.684,12.922-25.572,25.568
			c-3.11,13.625,1.783,27.263,12.771,35.594c0.187,0.142,0.278,0.29,0.278,0.451c0,0.098-0.028,0.25-0.266,0.429
			c-8.708,6.597-13.701,16.636-13.701,27.547c0,10.913,4.994,20.954,13.704,27.55c0.183,0.137,0.266,0.274,0.266,0.434
			c0,0.158-0.084,0.296-0.266,0.433c-8.708,6.597-13.704,16.637-13.704,27.549c0,10.913,4.994,20.954,13.702,27.55
			c0.183,0.139,0.268,0.274,0.268,0.435c0,0.159-0.084,0.296-0.266,0.435c-8.708,6.595-13.704,16.636-13.704,27.549
			c0,10.914,4.994,20.954,13.702,27.549c0.183,0.138,0.268,0.274,0.268,0.436c0,0.157-0.084,0.295-0.268,0.435
			c-8.708,6.594-13.702,16.636-13.702,27.548s4.994,20.955,13.702,27.548c0.183,0.139,0.268,0.277,0.268,0.437
			c0,0.158-0.084,0.295-0.268,0.434c-8.708,6.596-13.702,16.636-13.702,27.55c0,10.911,4.993,20.951,13.701,27.545
			c0.237,0.183,0.266,0.333,0.266,0.433c0,0.16-0.092,0.308-0.278,0.448c-10.986,8.33-15.88,21.971-12.771,35.592
			c2.887,12.646,12.924,22.684,25.57,25.57c2.712,0.62,5.422,0.922,8.093,0.922c10.748,0,20.827-4.891,27.499-13.691
			c0.143-0.186,0.289-0.277,0.451-0.277l0,0c0.098,0,0.25,0.028,0.429,0.266c6.596,8.707,16.637,13.701,27.548,13.701
			s20.953-4.993,27.549-13.701c0.274-0.366,0.592-0.364,0.867,0c6.596,8.708,16.636,13.701,27.549,13.701
			c10.912,0,20.953-4.993,27.548-13.701c0.276-0.366,0.594-0.364,0.867,0c6.597,8.708,16.638,13.701,27.549,13.701
			c10.91,0,20.953-4.993,27.549-13.701c0.178-0.236,0.33-0.266,0.428-0.266c0.163,0,0.312,0.093,0.452,0.277
			c8.329,10.986,21.97,15.882,35.591,12.771c12.646-2.888,22.686-12.925,25.57-25.57c3.108-13.623-1.784-27.262-12.771-35.592
			c-0.186-0.142-0.274-0.287-0.274-0.448c0-0.1,0.025-0.251,0.265-0.433c8.707-6.594,13.701-16.634,13.701-27.545
			c0-10.914-4.994-20.954-13.702-27.55c-0.182-0.137-0.267-0.275-0.267-0.434c0-0.159,0.085-0.298,0.267-0.437
			c8.708-6.594,13.702-16.636,13.702-27.548s-4.994-20.953-13.702-27.548c-0.182-0.14-0.267-0.277-0.267-0.435
			c0-0.159,0.085-0.297,0.267-0.436c8.708-6.596,13.702-16.636,13.702-27.549s-4.994-20.954-13.702-27.549
			c-0.182-0.138-0.267-0.275-0.267-0.435c0-0.158,0.085-0.296,0.267-0.435C521.479,19.546,526.474,9.504,526.474-1.408z
			 M504.852,37.466c5.405,4.094,8.505,10.322,8.505,17.093c0,6.769-3.1,12.999-8.505,17.093c-3.474,2.631-5.465,6.6-5.465,10.891
			s1.991,8.261,5.465,10.891c5.405,4.094,8.505,10.324,8.505,17.093c0,6.768-3.1,12.999-8.505,17.093
			c-3.474,2.629-5.465,6.599-5.465,10.891c0,4.291,1.991,8.262,5.465,10.891c5.405,4.094,8.505,10.323,8.505,17.093
			c0,6.771-3.1,12.997-8.503,17.093c-3.471,2.628-5.462,6.595-5.464,10.882c0,4.296,1.994,8.271,5.47,10.906
			c6.825,5.172,9.854,13.688,7.908,22.219c-1.746,7.646-8.056,13.956-15.702,15.702c-8.531,1.946-17.045-1.083-22.221-7.907
			c-2.636-3.475-6.609-5.469-10.901-5.469c-0.002,0-0.003,0-0.003,0c-4.29,0-8.256,1.991-10.884,5.462
			c-4.094,5.403-10.323,8.506-17.091,8.506c-6.77,0-12.999-3.103-17.094-8.506c-2.63-3.474-6.599-5.465-10.892-5.465
			c-4.289,0-8.258,1.991-10.889,5.465c-4.095,5.403-10.323,8.506-17.093,8.506s-12.999-3.103-17.092-8.506
			c-2.632-3.474-6.601-5.465-10.893-5.465c-4.291,0-8.26,1.991-10.89,5.465c-4.096,5.403-10.324,8.506-17.093,8.506
			s-12.998-3.1-17.092-8.506c-2.629-3.468-6.596-5.46-10.882-5.462c-0.001,0-0.001,0-0.003,0c-4.293,0-8.268,1.994-10.903,5.471
			c-5.174,6.825-13.688,9.855-22.22,7.905c-7.646-1.745-13.956-8.056-15.702-15.702c-1.947-8.528,1.083-17.045,7.908-22.219
			c3.478-2.637,5.47-6.61,5.469-10.904c-0.001-4.287-1.99-8.255-5.461-10.884c-5.404-4.093-8.504-10.322-8.504-17.091
			c0-6.77,3.101-12.999,8.505-17.095c3.474-2.629,5.463-6.6,5.463-10.89c0-4.289-1.99-8.26-5.463-10.89
			c-5.404-4.096-8.505-10.325-8.505-17.093c0-6.771,3.101-13,8.505-17.093c3.474-2.631,5.463-6.601,5.463-10.89
			c0-4.292-1.99-8.262-5.463-10.891c-5.404-4.094-8.505-10.325-8.505-17.094c0-6.77,3.101-12.999,8.505-17.092
			c3.474-2.632,5.463-6.601,5.463-10.891c0-4.292-1.99-8.26-5.463-10.891c-5.404-4.094-8.505-10.324-8.505-17.093
			c0-6.771,3.101-13,8.505-17.094c3.474-2.63,5.466-6.599,5.463-10.89c0-4.291-1.99-8.26-5.463-10.89
			c-5.404-4.095-8.505-10.324-8.505-17.094c0-6.769,3.1-12.998,8.503-17.091c3.47-2.628,5.461-6.595,5.461-10.882
			c0.001-4.294-1.991-8.27-5.468-10.906c-6.826-5.175-9.855-13.688-7.907-22.221c1.746-7.646,8.057-13.956,15.703-15.701
			c8.532-1.947,17.045,1.083,22.219,7.907c2.637,3.476,6.609,5.47,10.903,5.468c0.001,0,0.002,0,0.002,0
			c4.288,0,8.254-1.991,10.883-5.461c4.094-5.404,10.323-8.503,17.092-8.503s13,3.1,17.093,8.505
			c2.63,3.473,6.599,5.465,10.89,5.465s8.261-1.99,10.893-5.465c4.094-5.405,10.322-8.505,17.092-8.505s12.998,3.1,17.093,8.505
			c2.631,3.473,6.6,5.465,10.889,5.465c4.293,0,8.262-1.99,10.893-5.465c4.094-5.405,10.323-8.505,17.093-8.505
			c6.768,0,12.998,3.1,17.091,8.504c2.628,3.47,6.594,5.46,10.884,5.461c0,0,0,0,0.001,0c4.294,0,8.269-1.992,10.903-5.468
			c5.174-6.824,13.688-9.854,22.218-7.907c7.646,1.745,13.957,8.055,15.703,15.7c1.947,8.533-1.081,17.047-7.906,22.222
			c-3.477,2.637-5.471,6.611-5.47,10.905c0,4.288,1.993,8.254,5.462,10.882c5.405,4.095,8.505,10.324,8.505,17.092
			c0,6.771-3.1,12.999-8.505,17.093c-3.474,2.629-5.465,6.598-5.465,10.889c0,4.292,1.991,8.262,5.465,10.892
			c5.405,4.094,8.505,10.323,8.505,17.093c0,6.769-3.1,13-8.505,17.093c-3.474,2.629-5.465,6.599-5.465,10.89
			C499.387,30.865,501.378,34.835,504.852,37.466z"/>
		<path d="M296.052-91.915c-1.723,0-3.419,0.7-4.635,1.925c-1.226,1.216-1.924,2.911-1.924,4.635c0,1.723,0.698,3.419,1.924,4.635
			c1.215,1.224,2.912,1.924,4.635,1.924c1.722,0,3.418-0.7,4.634-1.924c1.226-1.215,1.924-2.912,1.924-4.635
			c0-1.724-0.698-3.419-1.924-4.635C299.47-91.215,297.774-91.915,296.052-91.915z"/>
		<path d="M352.017-91.915c-1.722,0-3.419,0.7-4.635,1.925c-1.224,1.216-1.924,2.911-1.924,4.635c0,1.723,0.7,3.419,1.924,4.635
			c1.216,1.224,2.913,1.924,4.635,1.924c1.725,0,3.42-0.7,4.635-1.924c1.226-1.215,1.925-2.912,1.925-4.635
			c0-1.724-0.699-3.419-1.925-4.635C355.437-91.215,353.74-91.915,352.017-91.915z"/>
		<path d="M407.981-91.915c-1.723,0-3.418,0.7-4.634,1.925c-1.226,1.216-1.923,2.911-1.923,4.635c0,1.723,0.697,3.419,1.923,4.635
			c1.216,1.224,2.911,1.924,4.634,1.924c1.724,0,3.421-0.7,4.636-1.924c1.225-1.215,1.925-2.912,1.925-4.635
			c0-1.724-0.7-3.419-1.925-4.635C411.402-91.215,409.704-91.915,407.981-91.915z"/>
		<path d="M463.947-91.915c-1.721,0-3.418,0.7-4.634,1.925c-1.225,1.216-1.925,2.911-1.925,4.635c0,1.723,0.7,3.419,1.925,4.635
			c1.216,1.224,2.913,1.924,4.634,1.924c1.725,0,3.421-0.7,4.636-1.924c1.226-1.215,1.924-2.912,1.924-4.635
			c0-1.724-0.698-3.419-1.924-4.635C467.367-91.215,465.679-91.915,463.947-91.915z"/>
		<path d="M296.052-35.948c-1.723,0-3.419,0.698-4.635,1.924c-1.226,1.216-1.924,2.912-1.924,4.635s0.698,3.418,1.924,4.634
			c1.215,1.226,2.912,1.924,4.635,1.924c1.722,0,3.418-0.698,4.634-1.924c1.226-1.216,1.924-2.912,1.924-4.634
			c0-1.723-0.698-3.419-1.924-4.635C299.47-35.25,297.774-35.948,296.052-35.948z"/>
		<path d="M352.017-35.948c-1.73,0-3.419,0.698-4.635,1.924c-1.224,1.216-1.924,2.912-1.924,4.635s0.7,3.418,1.924,4.634
			c1.216,1.226,2.913,1.924,4.635,1.924c1.725,0,3.42-0.698,4.635-1.924c1.226-1.216,1.925-2.912,1.925-4.634
			c0-1.723-0.699-3.419-1.925-4.635C355.437-35.25,353.74-35.948,352.017-35.948z"/>
		<path d="M407.981-35.948c-1.723,0-3.418,0.698-4.634,1.924c-1.226,1.216-1.923,2.912-1.923,4.635s0.697,3.418,1.923,4.634
			c1.216,1.226,2.911,1.924,4.634,1.924c1.724,0,3.421-0.698,4.636-1.924c1.225-1.216,1.925-2.912,1.925-4.634
			c0-1.723-0.7-3.419-1.925-4.635C411.402-35.25,409.704-35.948,407.981-35.948z"/>
		<path d="M463.947-35.948c-1.721,0-3.418,0.698-4.634,1.924c-1.225,1.216-1.925,2.912-1.925,4.635s0.7,3.418,1.925,4.634
			c1.216,1.226,2.913,1.924,4.634,1.924c1.725,0,3.421-0.698,4.636-1.924c1.226-1.216,1.924-2.912,1.924-4.634
			c0-1.723-0.698-3.419-1.924-4.635C467.367-35.25,465.679-35.948,463.947-35.948z"/>
		<path d="M296.052,75.982c-1.731,0-3.419,0.699-4.635,1.923c-1.226,1.215-1.924,2.903-1.924,4.634c0,1.732,0.698,3.42,1.924,4.636
			c1.215,1.224,2.912,1.925,4.635,1.925c1.722,0,3.418-0.701,4.634-1.925c1.226-1.215,1.924-2.912,1.924-4.636
			c0-1.723-0.698-3.418-1.924-4.634C299.47,76.681,297.783,75.982,296.052,75.982z"/>
		<path d="M352.017,75.982c-1.722,0-3.419,0.699-4.635,1.923c-1.224,1.215-1.924,2.911-1.924,4.634c0,1.724,0.7,3.42,1.924,4.636
			c1.216,1.224,2.913,1.925,4.635,1.925c1.725,0,3.411-0.701,4.635-1.925c1.226-1.215,1.925-2.912,1.925-4.636
			c0-1.723-0.699-3.418-1.925-4.634C355.437,76.681,353.74,75.982,352.017,75.982z"/>
		<path d="M407.981,75.982c-1.723,0-3.418,0.699-4.634,1.923c-1.226,1.215-1.923,2.911-1.923,4.634c0,1.724,0.697,3.42,1.923,4.636
			c1.216,1.224,2.911,1.925,4.634,1.925c1.724,0,3.421-0.701,4.636-1.925c1.225-1.215,1.925-2.912,1.925-4.636
			c0-1.723-0.7-3.418-1.925-4.634C411.402,76.681,409.704,75.982,407.981,75.982z"/>
		<path d="M463.947,75.982c-1.721,0-3.418,0.699-4.634,1.923c-1.225,1.215-1.925,2.911-1.925,4.634c0,1.724,0.7,3.42,1.925,4.636
			c1.216,1.224,2.913,1.925,4.634,1.925c1.725,0,3.421-0.701,4.636-1.925c1.226-1.215,1.924-2.912,1.924-4.636
			c0-1.723-0.698-3.418-1.924-4.634C467.367,76.681,465.671,75.982,463.947,75.982z"/>
		<path d="M296.052,20.016c-1.723,0-3.419,0.699-4.635,1.924c-1.226,1.215-1.924,2.912-1.924,4.635s0.698,3.419,1.924,4.635
			c1.215,1.226,2.912,1.925,4.635,1.925c1.722,0,3.418-0.699,4.634-1.925c1.226-1.215,1.924-2.912,1.924-4.635
			s-0.698-3.419-1.924-4.635C299.47,20.716,297.774,20.016,296.052,20.016z"/>
		<path d="M352.017,20.016c-1.722,0-3.419,0.699-4.635,1.924c-1.224,1.215-1.924,2.912-1.924,4.635s0.7,3.419,1.924,4.635
			c1.216,1.226,2.913,1.925,4.635,1.925c1.725,0,3.42-0.699,4.635-1.925c1.226-1.215,1.925-2.912,1.925-4.635
			s-0.699-3.419-1.925-4.635C355.437,20.716,353.74,20.016,352.017,20.016z"/>
		<path d="M407.981,20.016c-1.73,0-3.418,0.699-4.634,1.924c-1.226,1.215-1.923,2.912-1.923,4.635s0.697,3.419,1.923,4.635
			c1.216,1.226,2.903,1.925,4.634,1.925c1.724,0,3.421-0.699,4.636-1.925c1.225-1.215,1.925-2.912,1.925-4.635
			s-0.7-3.419-1.925-4.635C411.402,20.716,409.704,20.016,407.981,20.016z"/>
		<path d="M463.947,20.016c-1.721,0-3.418,0.699-4.634,1.924c-1.225,1.215-1.925,2.912-1.925,4.635s0.7,3.419,1.925,4.635
			c1.216,1.226,2.913,1.925,4.634,1.925c1.725,0,3.421-0.699,4.636-1.925c1.226-1.215,1.924-2.912,1.924-4.635
			s-0.698-3.419-1.924-4.635C467.367,20.716,465.671,20.016,463.947,20.016z"/>
		<path d="M296.052,131.947c-1.723,0-3.419,0.699-4.635,1.924c-1.226,1.216-1.924,2.913-1.924,4.635c0,1.724,0.698,3.42,1.924,4.636
			c1.215,1.225,2.912,1.924,4.635,1.924c1.722,0,3.418-0.699,4.634-1.924c1.226-1.216,1.924-2.912,1.924-4.636
			c0-1.722-0.698-3.419-1.924-4.635C299.47,132.646,297.774,131.947,296.052,131.947z"/>
		<path d="M352.017,131.947c-1.722,0-3.419,0.699-4.635,1.924c-1.224,1.216-1.924,2.913-1.924,4.635c0,1.73,0.7,3.42,1.924,4.636
			c1.216,1.225,2.903,1.924,4.635,1.924c1.725,0,3.42-0.699,4.635-1.924c1.226-1.216,1.925-2.912,1.925-4.636
			c0-1.722-0.699-3.419-1.925-4.635C355.437,132.646,353.74,131.947,352.017,131.947z"/>
		<path d="M407.981,131.947c-1.723,0-3.418,0.699-4.634,1.924c-1.226,1.216-1.923,2.913-1.923,4.635c0,1.73,0.697,3.42,1.923,4.636
			c1.216,1.225,2.903,1.924,4.634,1.924c1.732,0,3.421-0.699,4.636-1.924c1.225-1.216,1.925-2.904,1.925-4.636
			c0-1.722-0.7-3.419-1.925-4.635C411.402,132.646,409.704,131.947,407.981,131.947z"/>
		<path d="M463.947,131.947c-1.721,0-3.418,0.699-4.634,1.924c-1.225,1.216-1.925,2.913-1.925,4.635c0,1.73,0.7,3.42,1.925,4.636
			c1.216,1.225,2.903,1.924,4.634,1.924c1.725,0,3.421-0.699,4.636-1.924c1.226-1.216,1.924-2.912,1.924-4.636
			c0-1.722-0.698-3.419-1.924-4.635C467.367,132.646,465.671,131.947,463.947,131.947z"/>
		<path d="M296.052,187.913c-1.723,0-3.419,0.699-4.635,1.925c-1.226,1.216-1.924,2.91-1.924,4.635c0,1.723,0.698,3.418,1.924,4.634
			c1.215,1.225,2.912,1.925,4.635,1.925c1.722,0,3.418-0.7,4.634-1.925c1.226-1.216,1.924-2.911,1.924-4.634
			c0-1.725-0.698-3.419-1.924-4.635C299.47,188.612,297.774,187.913,296.052,187.913z"/>
		<path d="M352.017,187.913c-1.722,0-3.419,0.699-4.635,1.925c-1.224,1.216-1.924,2.91-1.924,4.635c0,1.723,0.7,3.418,1.924,4.634
			c1.216,1.225,2.913,1.925,4.635,1.925c1.725,0,3.42-0.7,4.635-1.925c1.226-1.216,1.925-2.911,1.925-4.634
			c0-1.725-0.699-3.419-1.925-4.635C355.437,188.612,353.74,187.913,352.017,187.913z"/>
		<path d="M407.981,187.913c-1.723,0-3.418,0.699-4.634,1.925c-1.226,1.216-1.923,2.91-1.923,4.635c0,1.731,0.697,3.418,1.923,4.634
			c1.216,1.225,2.911,1.925,4.634,1.925c1.724,0,3.421-0.7,4.636-1.925c1.225-1.216,1.925-2.911,1.925-4.634
			c0-1.725-0.7-3.419-1.925-4.635C411.402,188.612,409.704,187.913,407.981,187.913z"/>
		<path d="M463.947,187.913c-1.721,0-3.418,0.699-4.634,1.925c-1.225,1.216-1.925,2.91-1.925,4.635c0,1.723,0.7,3.418,1.925,4.634
			c1.216,1.225,2.913,1.925,4.634,1.925c1.725,0,3.421-0.7,4.636-1.925c1.226-1.216,1.924-2.911,1.924-4.634
			c0-1.725-0.698-3.419-1.924-4.635C467.367,188.612,465.671,187.913,463.947,187.913z"/>
	</g>
</g>
<g id="Capa_1_copy_2" display="none">
	<g display="inline">
		<path d="M355.578-72.195c-7.717,7.717-11.285,18.349-9.791,29.169c0.03,0.227-0.007,0.383-0.118,0.496
			c-0.112,0.111-0.271,0.148-0.495,0.118c-10.82-1.493-21.453,2.073-29.169,9.79c-7.717,7.718-11.285,18.349-9.792,29.169
			c0.031,0.228-0.006,0.384-0.12,0.497c-0.111,0.111-0.268,0.148-0.495,0.118c-10.82-1.495-21.452,2.075-29.168,9.791
			s-11.286,18.35-9.791,29.168c0.031,0.228-0.008,0.385-0.12,0.497s-0.269,0.149-0.495,0.118
			c-10.82-1.494-21.452,2.074-29.169,9.792c-7.715,7.715-11.284,18.346-9.79,29.165c0.039,0.296-0.048,0.423-0.118,0.493
			c-0.113,0.114-0.281,0.152-0.514,0.121c-13.659-1.878-26.764,4.306-34.196,16.137c-6.9,10.983-6.9,25.178,0,36.163
			c1.479,2.355,3.183,4.486,5.071,6.375c7.601,7.6,18.186,11.269,29.126,9.763c0.23-0.031,0.4,0.008,0.516,0.122l0,0
			c0.068,0.069,0.156,0.197,0.115,0.49c-1.494,10.821,2.075,21.452,9.79,29.168c7.716,7.717,18.349,11.286,29.169,9.791
			c0.454-0.063,0.677,0.161,0.613,0.613c-1.494,10.82,2.074,21.451,9.791,29.169c7.716,7.716,18.348,11.285,29.168,9.791
			c0.455-0.063,0.677,0.162,0.614,0.612c-1.494,10.821,2.075,21.453,9.791,29.168c7.715,7.717,18.348,11.285,29.169,9.791
			c0.292-0.041,0.42,0.048,0.489,0.115c0.114,0.116,0.153,0.286,0.124,0.518c-1.881,13.657,4.305,26.765,16.136,34.195
			c10.983,6.9,25.18,6.901,36.162-0.001c11.831-7.434,18.016-20.537,16.137-34.196c-0.031-0.231,0.009-0.398,0.123-0.513
			c0.068-0.069,0.194-0.159,0.491-0.118c10.819,1.494,21.45-2.073,29.165-9.789c7.719-7.718,11.285-18.349,9.792-29.17
			c-0.031-0.225,0.007-0.383,0.118-0.494s0.271-0.149,0.496-0.119c10.82,1.495,21.452-2.074,29.169-9.791
			c7.716-7.717,11.284-18.348,9.79-29.168c-0.03-0.228,0.008-0.386,0.118-0.495c0.113-0.113,0.271-0.15,0.497-0.12
			c10.821,1.494,21.452-2.074,29.169-9.791s11.285-18.348,9.791-29.169c-0.031-0.227,0.006-0.383,0.118-0.495
			s0.27-0.149,0.496-0.119c10.819,1.494,21.453-2.074,29.17-9.79l-3.204-27.375c0.929,6.716-1.285,13.313-6.071,18.1
			c-4.787,4.786-11.384,7-18.101,6.072c-4.315-0.597-8.53,0.803-11.565,3.837c-3.033,3.033-4.432,7.248-3.836,11.564
			c0.928,6.717-1.285,13.312-6.072,18.1c-4.786,4.787-11.383,7-18.1,6.073c-4.317-0.597-8.531,0.803-11.565,3.836
			c-3.033,3.034-4.433,7.249-3.836,11.564c0.929,6.717-1.287,13.313-6.071,18.101c-4.786,4.785-11.385,6.999-18.102,6.072
			c-4.314-0.598-8.53,0.802-11.564,3.837c-3.034,3.034-4.434,7.249-3.836,11.563c0.928,6.718-1.285,13.313-6.072,18.101
			s-11.382,6.999-18.1,6.074c-4.312-0.597-8.523,0.801-11.559,3.831c-3.037,3.036-4.438,7.258-3.844,11.579
			c1.169,8.483-2.711,16.646-10.119,21.304c-6.642,4.172-15.563,4.172-22.206,0c-7.409-4.656-11.287-12.818-10.121-21.306
			c0.594-4.318-0.807-8.54-3.842-11.573c-0.001-0.002-0.002-0.002-0.002-0.002c-3.033-3.034-7.246-4.431-11.559-3.834
			c-6.715,0.926-13.313-1.286-18.1-6.071c-4.786-4.786-6.999-11.385-6.072-18.102c0.597-4.314-0.802-8.529-3.838-11.564
			c-3.032-3.033-7.247-4.432-11.563-3.835c-6.716,0.925-13.313-1.286-18.1-6.073c-4.786-4.786-6.999-11.385-6.072-18.1
			c0.596-4.316-0.803-8.53-3.837-11.565c-3.034-3.034-7.249-4.433-11.564-3.836c-6.716,0.926-13.313-1.286-18.101-6.073
			c-4.785-4.785-7-11.381-6.071-18.099c0.593-4.312-0.803-8.524-3.833-11.557c0-0.001-0.001-0.001-0.002-0.004
			c-3.035-3.034-7.256-4.436-11.577-3.842c-8.484,1.169-16.647-2.709-21.302-10.121c-4.173-6.641-4.172-15.563,0-22.206
			c4.654-7.408,12.818-11.286,21.303-10.119c4.323,0.594,8.542-0.808,11.578-3.845c3.031-3.031,4.429-7.244,3.833-11.557
			c-0.928-6.716,1.286-13.313,6.072-18.099c4.787-4.787,11.383-7,18.102-6.074c4.314,0.597,8.529-0.803,11.563-3.837
			c3.033-3.033,4.432-7.248,3.836-11.563c-0.926-6.718,1.287-13.313,6.073-18.101s11.384-7.001,18.1-6.072
			c4.316,0.595,8.53-0.804,11.562-3.837c3.035-3.035,4.435-7.25,3.839-11.564c-0.928-6.717,1.286-13.314,6.072-18.101
			c4.786-4.787,11.384-7,18.101-6.072c4.314,0.596,8.529-0.804,11.562-3.837c3.034-3.035,4.434-7.249,3.838-11.563
			c-0.928-6.718,1.286-13.314,6.072-18.102c4.787-4.787,11.384-7,18.102-6.072l-28.345-2.181"/>
		<path d="M345.066,26.739c-1.225-1.224-2.912-1.924-4.638-1.917c-1.726-0.007-3.413,0.692-4.637,1.916
			c-1.227,1.225-1.925,2.913-1.918,4.638c-0.005,1.726,0.697,3.42,1.917,4.639c1.218,1.218,2.913,1.921,4.637,1.916
			c1.726,0.006,3.42-0.699,4.639-1.918c1.22-1.219,1.923-2.912,1.916-4.638C346.989,29.651,346.29,27.963,345.066,26.739z"/>
		<path d="M384.639,66.312c-1.217-1.217-2.911-1.923-4.637-1.917c-1.726-0.006-3.419,0.698-4.637,1.917
			c-1.22,1.218-1.925,2.914-1.919,4.638c-0.005,1.725,0.699,3.42,1.917,4.638c1.22,1.22,2.907,1.916,4.639,1.917
			c1.726,0.007,3.42-0.698,4.639-1.917c1.218-1.219,1.922-2.911,1.916-4.637C386.563,69.225,385.857,67.531,384.639,66.312z"/>
		<path d="M424.212,105.886c-1.219-1.219-2.91-1.924-4.637-1.917c-1.726-0.008-3.418,0.697-4.637,1.917
			c-1.219,1.219-1.925,2.912-1.918,4.638c-0.006,1.725,0.697,3.419,1.916,4.638s2.914,1.923,4.638,1.917
			c1.726,0.006,3.421-0.698,4.641-1.917c1.219-1.218,1.921-2.913,1.915-4.638C426.137,108.799,425.431,107.104,424.212,105.886z"/>
		<path d="M463.785,145.459c-1.217-1.216-2.91-1.922-4.637-1.916c-1.726-0.007-3.419,0.697-4.638,1.915
			c-1.219,1.22-1.924,2.914-1.917,4.641c-0.005,1.725,0.699,3.42,1.916,4.637c1.219,1.219,2.915,1.924,4.639,1.918
			c1.727,0.006,3.419-0.7,4.638-1.919c1.22-1.218,1.925-2.911,1.917-4.636C465.711,148.372,465.005,146.679,463.785,145.459z"/>
		<path d="M384.641-12.835c-1.219-1.218-2.913-1.923-4.638-1.917c-1.727-0.007-3.42,0.699-4.639,1.917
			c-1.219,1.219-1.924,2.913-1.917,4.639c-0.007,1.726,0.698,3.419,1.917,4.638c1.219,1.218,2.911,1.923,4.638,1.917
			c1.726,0.006,3.419-0.699,4.638-1.917c1.218-1.218,1.923-2.913,1.917-4.638C386.562-9.923,385.857-11.617,384.641-12.835z"/>
		<path d="M424.213,26.738c-1.218-1.217-2.912-1.923-4.639-1.917c-1.724-0.006-3.419,0.699-4.637,1.917
			c-1.219,1.219-1.923,2.913-1.917,4.638c-0.007,1.727,0.699,3.42,1.917,4.639c1.219,1.219,2.912,1.924,4.637,1.917
			c1.727,0.006,3.42-0.699,4.639-1.917c1.219-1.219,1.924-2.913,1.917-4.639C426.137,29.651,425.432,27.957,424.213,26.738z"/>
		<path d="M463.785,66.312c-1.224-1.225-2.91-1.922-4.637-1.916c-1.726-0.007-3.419,0.699-4.637,1.917
			c-1.219,1.218-1.925,2.912-1.918,4.637c-0.006,1.727,0.691,3.414,1.916,4.637c1.219,1.22,2.914,1.925,4.639,1.917
			c1.725,0.007,3.42-0.697,4.639-1.917c1.219-1.218,1.923-2.914,1.916-4.638C465.711,69.225,465.005,67.53,463.785,66.312z"/>
		<path d="M503.36,105.885c-1.217-1.218-2.912-1.923-4.637-1.916c-1.727-0.008-3.421,0.697-4.639,1.916
			c-1.22,1.218-1.924,2.912-1.916,4.638c-0.008,1.726,0.698,3.42,1.916,4.637c1.219,1.219,2.912,1.924,4.639,1.917
			c1.725,0.006,3.418-0.699,4.637-1.917c1.218-1.218,1.924-2.912,1.917-4.637C505.283,108.799,504.578,107.104,503.36,105.885z"/>
		<path d="M305.493,66.312c-1.219-1.218-2.912-1.923-4.638-1.917c-1.726-0.006-3.42,0.7-4.638,1.917
			c-1.218,1.218-1.924,2.913-1.917,4.638c-0.007,1.725,0.698,3.419,1.917,4.638c1.218,1.219,2.912,1.924,4.637,1.916
			c1.726,0.008,3.419-0.698,4.639-1.917c1.217-1.217,1.923-2.912,1.917-4.638C307.416,69.224,306.71,67.53,305.493,66.312z"/>
		<path d="M345.066,105.886c-1.218-1.219-2.912-1.924-4.638-1.917c-1.726-0.006-3.421,0.699-4.638,1.917
			c-1.225,1.224-1.924,2.912-1.917,4.638c-0.007,1.726,0.691,3.413,1.917,4.638c1.219,1.219,2.912,1.924,4.638,1.917
			c1.725,0.007,3.419-0.699,4.638-1.917c1.218-1.218,1.923-2.912,1.917-4.638C346.99,108.798,346.285,107.104,345.066,105.886z"/>
		<path d="M384.639,145.459c-1.218-1.219-2.911-1.923-4.637-1.916c-1.727-0.007-3.419,0.7-4.637,1.917
			c-1.225,1.225-1.926,2.912-1.919,4.638c-0.006,1.726,0.693,3.414,1.917,4.638c1.226,1.225,2.913,1.924,4.639,1.917
			c1.725,0.007,3.415-0.692,4.639-1.916c1.217-1.218,1.922-2.913,1.916-4.639C386.563,148.372,385.857,146.678,384.639,145.459z"/>
		<path d="M424.213,185.032c-1.218-1.217-2.911-1.922-4.638-1.916c-1.726-0.006-3.421,0.699-4.639,1.916
			c-1.224,1.224-1.923,2.914-1.916,4.639c-0.006,1.727,0.692,3.413,1.916,4.638c1.219,1.219,2.913,1.925,4.639,1.918
			c1.726,0.007,3.419-0.699,4.638-1.918c1.218-1.218,1.924-2.911,1.918-4.638C426.138,187.946,425.432,186.251,424.213,185.032z"/>
		<path d="M265.919,105.886c-1.218-1.219-2.912-1.924-4.639-1.916c-1.725-0.008-3.418,0.696-4.637,1.916
			c-1.218,1.218-1.923,2.911-1.917,4.637c-0.006,1.725,0.698,3.42,1.916,4.638s2.913,1.922,4.638,1.916
			c1.727,0.006,3.42-0.698,4.638-1.916c1.219-1.219,1.923-2.912,1.916-4.637C267.842,108.798,267.137,107.104,265.919,105.886z"/>
		<path d="M305.492,145.459c-1.218-1.217-2.912-1.923-4.639-1.916c-1.724-0.006-3.418,0.697-4.637,1.916
			c-1.218,1.22-1.921,2.912-1.916,4.639c-0.006,1.726,0.699,3.421,1.916,4.638c1.219,1.219,2.914,1.924,4.639,1.917
			c1.727,0.006,3.418-0.698,4.638-1.917c1.219-1.219,1.923-2.912,1.916-4.637C307.416,148.372,306.711,146.679,305.492,145.459z"/>
		<path d="M345.065,185.032c-1.218-1.218-2.911-1.922-4.638-1.915c-1.725-0.007-3.418,0.698-4.637,1.917
			c-1.226,1.226-1.923,2.91-1.916,4.636c-0.007,1.727,0.696,3.42,1.915,4.639s2.914,1.924,4.639,1.917
			c1.726,0.006,3.42-0.697,4.638-1.915c1.22-1.22,1.922-2.914,1.916-4.639C346.99,187.946,346.284,186.251,345.065,185.032z"/>
		<path d="M384.639,224.606c-1.216-1.217-2.911-1.923-4.637-1.916c-1.727-0.007-3.419,0.697-4.639,1.916
			c-1.219,1.218-1.922,2.912-1.915,4.638c-0.007,1.727,0.698,3.421,1.915,4.638c1.22,1.22,2.914,1.925,4.64,1.917
			c1.726,0.007,3.418-0.698,4.636-1.917c1.219-1.219,1.924-2.91,1.917-4.637C386.563,227.52,385.858,225.825,384.639,224.606z"/>
	</g>
	<path display="inline" d="M523.146,174.525c7.716-7.717,11.283-18.347,9.791-29.167c-0.04-0.296,0.046-0.423,0.115-0.492
		c0.114-0.114,0.282-0.153,0.515-0.122c13.661,1.879,26.766-4.306,34.199-16.139c6.898-10.985,6.897-25.178-0.003-36.162
		c-7.435-11.831-20.537-18.013-34.195-16.135c-0.231,0.031-0.399-0.009-0.515-0.122c-0.069-0.07-0.158-0.196-0.116-0.492
		c1.492-10.819-2.076-21.449-9.791-29.165c-7.718-7.718-18.349-11.286-29.17-9.792c-0.45,0.062-0.676-0.161-0.613-0.613
		c1.494-10.82-2.074-21.452-9.792-29.169c-7.716-7.716-18.346-11.284-29.168-9.792c-0.45,0.062-0.676-0.161-0.613-0.613
		c1.494-10.819-2.074-21.451-9.792-29.168c-7.716-7.716-18.346-11.284-29.165-9.792c-0.296,0.041-0.423-0.046-0.49-0.115
		c-0.115-0.115-0.155-0.283-0.123-0.516c1.877-13.659-4.307-26.763-16.136-34.194c-10.982-6.902-25.178-6.902-36.161-0.003
		c-11.834,7.434-18.019,20.538-16.141,34.197c0.031,0.233-0.009,0.401-0.122,0.517c-0.068,0.068-0.196,0.156-0.49,0.115
		c-10.82-1.493-21.451,2.075-29.167,9.791l27.372,3.202c4.312,0.596,8.523-0.802,11.557-3.833c3.038-3.037,4.438-7.256,3.845-11.579
		c-1.167-8.485,2.711-16.648,10.122-21.304c6.643-4.172,15.564-4.171,22.206,0.001c7.409,4.656,11.286,12.818,10.119,21.302
		c-0.594,4.322,0.806,8.542,3.844,11.577c0,0,0.001,0.001,0.002,0.001c3.032,3.032,7.243,4.43,11.557,3.834
		c6.717-0.927,13.312,1.287,18.099,6.072c4.787,4.787,7,11.384,6.073,18.101c-0.598,4.315,0.802,8.53,3.836,11.564
		c3.033,3.034,7.249,4.434,11.564,3.837c6.717-0.927,13.313,1.286,18.101,6.072c4.786,4.787,6.999,11.383,6.071,18.101
		c-0.595,4.316,0.804,8.531,3.836,11.563c3.035,3.036,7.249,4.434,11.565,3.837c6.717-0.927,13.313,1.286,18.101,6.072
		c4.785,4.785,6.999,11.383,6.071,18.099c-0.596,4.312,0.802,8.522,3.835,11.557c0,0,0,0,0.001,0.001
		c3.036,3.036,7.254,4.438,11.576,3.844c8.483-1.167,16.646,2.713,21.302,10.118c4.173,6.642,4.174,15.565,0.002,22.206
		c-4.656,7.41-12.817,11.29-21.305,10.123c-4.322-0.594-8.543,0.808-11.578,3.844c-3.031,3.031-4.427,7.245-3.833,11.558
		L523.146,174.525z"/>
</g>
<g id="Capa_1_copy">
	<g>
		<path d="M427.237,352.232l-8.048-8.051c-4.152,4.154-9.878,6.074-15.707,5.27c-3.747-0.517-7.404,0.696-10.037,3.329
			c-2.632,2.634-3.847,6.292-3.329,10.036c0.806,5.829-1.116,11.555-5.269,15.709c-4.153,4.152-9.88,6.073-15.709,5.27
			c-3.744-0.519-7.402,0.695-10.036,3.329s-3.848,6.292-3.329,10.036c0.805,5.829-1.115,11.553-5.27,15.707
			s-9.878,6.075-15.707,5.271c-3.742-0.517-7.397,0.695-10.031,3.324c-2.636,2.636-3.852,6.3-3.336,10.05
			c1.015,7.362-2.353,14.446-8.782,18.488c-5.764,3.621-13.506,3.621-19.271,0c-6.43-4.041-9.796-11.124-8.784-18.49
			c0.516-3.748-0.699-7.41-3.334-10.043c0-0.002-0.001-0.002-0.001-0.002c-2.633-2.634-6.289-3.846-10.031-3.329
			c-5.827,0.806-11.554-1.115-15.708-5.268c-4.153-4.152-6.074-9.88-5.27-15.709c0.518-3.744-0.696-7.402-3.33-10.036
			c-2.632-2.632-6.29-3.846-10.036-3.327c-5.829,0.802-11.554-1.117-15.708-5.271c-4.154-4.152-6.074-9.88-5.27-15.707
			c0.517-3.746-0.696-7.402-3.33-10.036c-2.633-2.635-6.291-3.848-10.036-3.329c-5.828,0.803-11.554-1.117-15.708-5.271
			c-4.153-4.153-6.075-9.877-5.269-15.706c0.515-3.742-0.697-7.398-3.326-10.03c0,0-0.001,0-0.002-0.002
			c-2.634-2.634-6.297-3.85-10.047-3.334c-7.363,1.014-14.447-2.352-18.486-8.783c-3.622-5.764-3.621-13.508,0-19.272
			c4.039-6.429,11.124-9.795,18.487-8.782c3.752,0.517,7.413-0.7,10.048-3.336c2.63-2.631,3.843-6.286,3.326-10.029
			c-0.805-5.829,1.116-11.554,5.27-15.708c4.155-4.154,9.878-6.075,15.709-5.271c3.744,0.518,7.402-0.698,10.035-3.33
			c2.632-2.632,3.846-6.29,3.329-10.035c-0.803-5.83,1.117-11.554,5.271-15.708c4.154-4.155,9.879-6.076,15.708-5.27
			c3.746,0.516,7.403-0.697,10.035-3.33c2.633-2.634,3.848-6.292,3.331-10.036c-0.805-5.829,1.117-11.555,5.27-15.708
			c4.153-4.155,9.879-6.075,15.708-5.27c3.744,0.516,7.402-0.697,10.034-3.33c2.633-2.634,3.848-6.291,3.33-10.035
			c-0.805-5.83,1.116-11.555,5.271-15.709l-8.047-8.048c-6.697,6.697-9.794,15.923-8.498,25.313c0.026,0.197-0.006,0.333-0.103,0.43
			c-0.097,0.098-0.234,0.13-0.43,0.104c-9.39-1.297-18.618,1.799-25.313,8.496c-6.697,6.697-9.794,15.924-8.498,25.314
			c0.027,0.197-0.005,0.333-0.104,0.431c-0.097,0.097-0.232,0.129-0.43,0.103c-9.39-1.297-18.617,1.801-25.313,8.497
			c-6.696,6.696-9.794,15.923-8.497,25.313c0.027,0.197-0.007,0.334-0.104,0.431c-0.098,0.098-0.233,0.13-0.43,0.103
			c-9.391-1.296-18.617,1.8-25.314,8.498c-6.695,6.695-9.793,15.921-8.496,25.311c0.034,0.257-0.042,0.367-0.103,0.428
			c-0.098,0.098-0.244,0.132-0.446,0.105c-11.854-1.629-23.227,3.737-29.677,14.004c-5.988,9.53-5.988,21.851,0,31.383
			c1.284,2.044,2.762,3.894,4.401,5.532c6.596,6.596,15.782,9.78,25.277,8.474c0.2-0.027,0.347,0.007,0.447,0.104l0,0
			c0.06,0.062,0.136,0.172,0.1,0.426c-1.297,9.391,1.801,18.618,8.496,25.313c6.696,6.696,15.923,9.795,25.314,8.496
			c0.394-0.054,0.587,0.142,0.532,0.532c-1.297,9.391,1.8,18.616,8.497,25.315c6.696,6.695,15.923,9.792,25.313,8.497
			c0.395-0.057,0.587,0.139,0.533,0.53c-1.297,9.392,1.801,18.617,8.497,25.312c6.695,6.697,15.923,9.794,25.313,8.497
			c0.253-0.035,0.365,0.041,0.425,0.101c0.099,0.102,0.133,0.249,0.107,0.448c-1.632,11.854,3.736,23.229,14.003,29.677
			c9.532,5.988,21.853,5.989,31.383,0c10.268-6.451,15.635-17.823,14.004-29.678c-0.026-0.2,0.008-0.346,0.107-0.444
			c0.059-0.061,0.168-0.139,0.426-0.104c9.39,1.297,18.615-1.8,25.311-8.495c6.698-6.697,9.794-15.923,8.498-25.314
			c-0.027-0.195,0.006-0.332,0.103-0.429s0.234-0.129,0.431-0.104c9.39,1.297,18.616-1.8,25.313-8.497
			c6.696-6.697,9.793-15.923,8.496-25.313c-0.025-0.196,0.007-0.333,0.103-0.429c0.099-0.098,0.234-0.13,0.432-0.104
			c9.391,1.297,18.616-1.801,25.313-8.497"/>
		<path d="M272.693,223.979c-1.062-1.062-2.527-1.669-4.024-1.664c-1.498-0.006-2.962,0.601-4.024,1.663
			c-1.064,1.063-1.67,2.528-1.665,4.025c-0.004,1.498,0.605,2.968,1.664,4.025c1.057,1.057,2.528,1.667,4.024,1.663
			c1.498,0.005,2.968-0.607,4.025-1.665c1.059-1.058,1.669-2.527,1.663-4.025C274.362,226.507,273.756,225.041,272.693,223.979z"/>
		<path d="M307.035,258.322c-1.056-1.056-2.526-1.668-4.023-1.664c-1.498-0.005-2.967,0.606-4.023,1.664
			c-1.059,1.057-1.671,2.529-1.666,4.025c-0.004,1.497,0.607,2.968,1.664,4.025c1.059,1.058,2.522,1.663,4.025,1.663
			c1.497,0.006,2.968-0.605,4.025-1.663c1.057-1.058,1.668-2.526,1.663-4.024C308.705,260.85,308.093,259.38,307.035,258.322z"/>
		<path d="M375.722,327.008c-1.056-1.054-2.525-1.668-4.024-1.663c-1.497-0.005-2.967,0.605-4.024,1.663s-1.67,2.529-1.664,4.027
			c-0.004,1.497,0.607,2.968,1.663,4.024c1.058,1.058,2.53,1.669,4.025,1.664c1.499,0.005,2.968-0.608,4.025-1.666
			c1.059-1.057,1.67-2.525,1.663-4.022C377.393,329.537,376.781,328.067,375.722,327.008z"/>
		<path d="M307.037,189.635c-1.058-1.057-2.528-1.669-4.024-1.664c-1.499-0.006-2.968,0.606-4.025,1.664
			c-1.058,1.058-1.67,2.528-1.664,4.025c-0.006,1.498,0.606,2.967,1.664,4.025c1.058,1.057,2.526,1.668,4.024,1.664
			c1.497,0.005,2.967-0.607,4.024-1.664c1.058-1.057,1.669-2.528,1.664-4.025C308.704,192.162,308.093,190.692,307.037,189.635z"/>
		<path d="M238.351,258.322c-1.058-1.057-2.527-1.668-4.025-1.664c-1.498-0.005-2.968,0.608-4.025,1.664
			c-1.057,1.057-1.669,2.528-1.664,4.025c-0.006,1.497,0.606,2.967,1.664,4.025c1.057,1.058,2.527,1.669,4.024,1.663
			c1.498,0.006,2.967-0.606,4.026-1.664c1.056-1.056,1.668-2.527,1.664-4.025C240.019,260.849,239.406,259.379,238.351,258.322z"/>
		<path d="M272.693,292.666c-1.057-1.058-2.527-1.669-4.024-1.663c-1.498-0.006-2.969,0.606-4.025,1.663
			c-1.062,1.062-1.669,2.527-1.664,4.025c-0.006,1.497,0.6,2.961,1.664,4.023c1.058,1.059,2.527,1.67,4.025,1.665
			c1.497,0.005,2.967-0.606,4.024-1.665c1.057-1.056,1.669-2.526,1.664-4.023C274.363,295.193,273.751,293.722,272.693,292.666z"/>
		<path d="M307.035,327.008c-1.057-1.058-2.526-1.668-4.023-1.663c-1.498-0.005-2.967,0.609-4.023,1.665
			c-1.063,1.062-1.672,2.527-1.666,4.023c-0.005,1.499,0.602,2.963,1.664,4.026c1.063,1.062,2.527,1.669,4.025,1.662
			c1.497,0.007,2.964-0.6,4.025-1.662c1.057-1.057,1.668-2.527,1.663-4.026C308.705,329.537,308.093,328.067,307.035,327.008z"/>
		<path d="M341.379,361.351c-1.057-1.056-2.525-1.668-4.024-1.663c-1.497-0.005-2.969,0.607-4.025,1.663
			c-1.062,1.062-1.669,2.529-1.663,4.025c-0.005,1.499,0.602,2.962,1.663,4.024c1.058,1.058,2.528,1.671,4.025,1.664
			c1.498,0.007,2.967-0.606,4.024-1.664c1.058-1.056,1.67-2.525,1.665-4.024C343.05,363.881,342.438,362.409,341.379,361.351z"/>
		<path d="M204.007,292.666c-1.057-1.058-2.527-1.669-4.026-1.662c-1.497-0.007-2.966,0.604-4.024,1.662
			c-1.057,1.057-1.668,2.527-1.664,4.023c-0.005,1.497,0.606,2.968,1.663,4.025c1.057,1.057,2.528,1.668,4.024,1.663
			c1.499,0.005,2.968-0.606,4.025-1.663c1.058-1.058,1.668-2.526,1.663-4.023C205.676,295.193,205.064,293.722,204.007,292.666z"/>
		<path d="M238.35,327.008c-1.057-1.056-2.527-1.668-4.025-1.663c-1.496-0.005-2.966,0.605-4.024,1.663
			c-1.057,1.06-1.667,2.527-1.663,4.025c-0.005,1.499,0.607,2.97,1.663,4.026c1.058,1.058,2.529,1.669,4.025,1.662
			c1.499,0.005,2.966-0.604,4.025-1.662c1.058-1.059,1.668-2.527,1.663-4.024C240.019,329.537,239.407,328.067,238.35,327.008z"/>
		<path d="M272.692,361.351c-1.057-1.058-2.526-1.668-4.025-1.663c-1.497-0.005-2.966,0.607-4.024,1.665
			c-1.063,1.062-1.668,2.525-1.663,4.022c-0.006,1.498,0.604,2.968,1.662,4.025c1.058,1.058,2.529,1.669,4.026,1.664
			c1.498,0.005,2.968-0.604,4.024-1.662c1.059-1.058,1.668-2.529,1.663-4.026C274.363,363.881,273.751,362.409,272.692,361.351z"/>
		<path d="M307.035,395.695c-1.055-1.056-2.526-1.669-4.023-1.662c-1.498-0.007-2.967,0.604-4.025,1.662
			c-1.058,1.057-1.668,2.527-1.662,4.024c-0.006,1.498,0.605,2.97,1.662,4.025c1.059,1.058,2.528,1.67,4.026,1.663
			c1.497,0.007,2.966-0.605,4.022-1.663c1.059-1.058,1.67-2.525,1.664-4.024C308.705,398.224,308.094,396.753,307.035,395.695z"/>
	</g>
	<path d="M427.237,352.232"/>
	<path d="M358.549,172.466c-6.696-6.696-15.921-9.793-25.311-8.498c-0.257,0.036-0.367-0.04-0.426-0.1
		c-0.1-0.1-0.135-0.246-0.106-0.447c1.629-11.854-3.737-23.226-14.002-29.675c-9.532-5.99-21.852-5.99-31.383-0.003
		c-10.271,6.451-15.637,17.824-14.007,29.678c0.027,0.203-0.008,0.348-0.105,0.448c-0.061,0.06-0.171,0.136-0.427,0.1
		c-9.39-1.296-18.616,1.801-25.312,8.497l23.754,2.779c3.742,0.517,7.397-0.696,10.029-3.326c2.637-2.636,3.852-6.297,3.337-10.049
		c-1.013-7.364,2.353-14.448,8.784-18.488c5.765-3.621,13.507-3.62,19.271,0.001c6.43,4.041,9.794,11.124,8.781,18.486
		c-0.516,3.751,0.699,7.413,3.336,10.047c0,0,0.001,0.001,0.002,0.001c2.631,2.631,6.285,3.844,10.029,3.327
		c5.828-0.804,11.553,1.117,15.706,5.27"/>
	<line fill="none" x1="287.99" y1="148.386" x2="290.572" y2="140.9"/>
	<path d="M305.573,140.9"/>
</g>
<g id="Layer_3">
	<path fill="none" stroke="#000000" stroke-width="12" stroke-miterlimit="10" d="M350.958,173.871
		c8.896,2.82,4.042,9.022,4.042,9.022s-43.221,25.83-0.788,50.799c0,0-20.885,19.509-7.947,57.312c0,0,14.697,32.75,49.604,25.193
		c0,0-0.217,31.689,27.771,21.84c0,0,10.124-1.315-1.085,11.354"/>
</g>
<g id="Capa_1_copy_1_">
	<g>
		<path d="M1026.479,335.191l-9.273-9.277c-4.785,4.787-11.383,7-18.1,6.072c-4.316-0.596-8.531,0.803-11.564,3.836
			c-3.033,3.035-4.434,7.25-3.836,11.564c0.928,6.717-1.287,13.314-6.072,18.102c-4.785,4.785-11.385,6.998-18.102,6.072
			c-4.314-0.598-8.529,0.801-11.564,3.836c-3.033,3.035-4.434,7.25-3.836,11.564c0.928,6.717-1.285,13.312-6.072,18.1
			s-11.381,7-18.098,6.074c-4.312-0.596-8.525,0.801-11.561,3.83c-3.037,3.037-4.438,7.26-3.844,11.58
			c1.17,8.484-2.711,16.646-10.119,21.305c-6.641,4.172-15.562,4.172-22.205,0c-7.408-4.656-11.287-12.818-10.121-21.307
			c0.594-4.318-0.807-8.539-3.842-11.572c-0.002-0.002-0.002-0.002-0.002-0.002c-3.033-3.035-7.246-4.432-11.559-3.836
			c-6.715,0.928-13.314-1.285-18.1-6.07c-4.787-4.785-7-11.385-6.072-18.102c0.596-4.314-0.803-8.529-3.838-11.564
			c-3.033-3.033-7.248-4.432-11.564-3.834c-6.715,0.924-13.312-1.287-18.1-6.074c-4.785-4.785-6.998-11.385-6.072-18.1
			c0.596-4.316-0.803-8.529-3.836-11.564c-3.035-3.035-7.25-4.434-11.564-3.836c-6.717,0.926-13.314-1.287-18.102-6.074
			c-4.785-4.785-7-11.381-6.07-18.098c0.592-4.312-0.803-8.525-3.834-11.559c0,0,0,0-0.002-0.002
			c-3.035-3.035-7.256-4.436-11.576-3.842c-8.484,1.168-16.648-2.709-21.303-10.121c-4.172-6.641-4.172-15.564,0-22.207
			c4.654-7.408,12.818-11.287,21.303-10.12c4.324,0.595,8.543-0.807,11.578-3.844c3.031-3.032,4.43-7.244,3.834-11.557
			c-0.928-6.716,1.285-13.313,6.072-18.1s11.383-7,18.102-6.073c4.314,0.597,8.529-0.804,11.562-3.837s4.432-7.248,3.836-11.563
			c-0.926-6.718,1.287-13.313,6.074-18.101c4.785-4.787,11.383-7.001,18.1-6.072c4.316,0.595,8.529-0.804,11.562-3.837
			c3.035-3.035,4.434-7.25,3.838-11.564c-0.928-6.717,1.287-13.314,6.072-18.101c4.787-4.787,11.385-7,18.102-6.072
			c4.314,0.595,8.529-0.804,11.562-3.837c3.033-3.035,4.434-7.249,3.838-11.563c-0.928-6.718,1.285-13.314,6.072-18.102
			l-9.273-9.274c-7.717,7.717-11.285,18.349-9.791,29.169c0.031,0.227-0.006,0.383-0.117,0.495
			c-0.113,0.112-0.271,0.149-0.496,0.119c-10.82-1.494-21.453,2.073-29.168,9.79c-7.717,7.717-11.285,18.349-9.793,29.169
			c0.031,0.228-0.006,0.384-0.119,0.497c-0.111,0.111-0.268,0.148-0.496,0.118c-10.82-1.495-21.451,2.075-29.168,9.791
			c-7.715,7.716-11.285,18.349-9.791,29.168c0.031,0.228-0.008,0.385-0.119,0.497c-0.113,0.112-0.27,0.149-0.496,0.118
			c-10.82-1.494-21.451,2.074-29.168,9.792c-7.715,7.715-11.285,18.346-9.791,29.165c0.039,0.296-0.047,0.423-0.117,0.493
			c-0.113,0.113-0.281,0.152-0.514,0.121c-13.66-1.878-26.764,4.306-34.197,16.137c-6.9,10.982-6.9,25.178,0,36.163
			c1.48,2.355,3.184,4.486,5.072,6.375c7.6,7.6,18.186,11.27,29.125,9.764c0.23-0.031,0.4,0.008,0.516,0.121l0,0
			c0.068,0.07,0.156,0.197,0.115,0.49c-1.494,10.82,2.076,21.453,9.791,29.168c7.715,7.717,18.348,11.287,29.168,9.791
			c0.455-0.062,0.678,0.162,0.613,0.613c-1.494,10.82,2.074,21.451,9.791,29.17c7.717,7.715,18.348,11.283,29.168,9.791
			c0.455-0.064,0.678,0.16,0.615,0.611c-1.494,10.822,2.074,21.453,9.791,29.168c7.715,7.717,18.348,11.285,29.168,9.791
			c0.293-0.041,0.42,0.047,0.49,0.115c0.113,0.117,0.152,0.287,0.123,0.518c-1.881,13.658,4.305,26.766,16.137,34.195
			c10.982,6.9,25.18,6.902,36.162,0c11.83-7.434,18.016-20.537,16.137-34.197c-0.031-0.23,0.008-0.398,0.123-0.512
			c0.068-0.07,0.193-0.16,0.49-0.119c10.82,1.494,21.451-2.074,29.166-9.789c7.719-7.717,11.285-18.348,9.791-29.17
			c-0.031-0.225,0.008-0.383,0.119-0.494s0.27-0.148,0.496-0.119c10.82,1.494,21.451-2.074,29.168-9.791s11.285-18.348,9.791-29.168
			c-0.029-0.227,0.008-0.385,0.117-0.494c0.113-0.113,0.271-0.15,0.498-0.121c10.82,1.494,21.451-2.074,29.168-9.791"/>
		<path d="M848.399,187.406c-1.225-1.224-2.912-1.924-4.637-1.917c-1.727-0.007-3.414,0.692-4.637,1.916
			c-1.227,1.225-1.926,2.913-1.918,4.638c-0.006,1.726,0.697,3.42,1.916,4.639c1.219,1.218,2.914,1.921,4.637,1.916
			c1.727,0.006,3.42-0.699,4.639-1.918c1.221-1.219,1.924-2.912,1.916-4.638C850.323,190.318,849.623,188.629,848.399,187.406z"/>
		<path d="M887.973,226.979c-1.217-1.217-2.912-1.923-4.637-1.917c-1.727-0.006-3.42,0.698-4.637,1.917
			c-1.221,1.218-1.926,2.914-1.92,4.638c-0.004,1.725,0.699,3.42,1.918,4.638c1.219,1.22,2.906,1.916,4.639,1.917
			c1.725,0.007,3.42-0.698,4.639-1.917c1.217-1.219,1.922-2.911,1.916-4.637C889.897,229.892,889.19,228.198,887.973,226.979z"/>
		<path d="M927.545,266.553c-1.219-1.219-2.91-1.924-4.637-1.917c-1.725-0.008-3.418,0.697-4.637,1.917
			c-1.219,1.219-1.924,2.912-1.918,4.638c-0.006,1.725,0.697,3.418,1.916,4.637s2.914,1.924,4.639,1.918
			c1.725,0.006,3.42-0.699,4.641-1.918c1.219-1.217,1.92-2.912,1.914-4.637C929.471,269.465,928.764,267.771,927.545,266.553z"/>
		<path d="M967.119,306.125c-1.217-1.215-2.91-1.922-4.637-1.916c-1.727-0.006-3.42,0.697-4.639,1.916s-1.924,2.914-1.916,4.641
			c-0.006,1.725,0.699,3.42,1.916,4.637c1.219,1.219,2.914,1.924,4.639,1.918c1.727,0.006,3.418-0.701,4.637-1.92
			c1.221-1.217,1.926-2.91,1.918-4.635C969.045,309.039,968.338,307.345,967.119,306.125z"/>
		<path d="M887.975,147.831c-1.219-1.218-2.914-1.923-4.639-1.917c-1.727-0.007-3.42,0.699-4.639,1.917
			c-1.219,1.219-1.924,2.913-1.916,4.639c-0.008,1.726,0.697,3.419,1.916,4.638c1.219,1.218,2.912,1.923,4.639,1.917
			c1.725,0.006,3.418-0.699,4.637-1.917s1.924-2.913,1.918-4.638C889.895,150.743,889.19,149.049,887.975,147.831z"/>
		<path d="M927.547,187.405c-1.219-1.217-2.912-1.923-4.639-1.917c-1.725-0.006-3.42,0.699-4.637,1.917
			c-1.219,1.219-1.924,2.913-1.918,4.638c-0.006,1.727,0.699,3.42,1.918,4.639s2.912,1.924,4.637,1.917
			c1.727,0.006,3.42-0.699,4.639-1.917c1.219-1.219,1.924-2.913,1.916-4.639C929.471,190.318,928.766,188.623,927.547,187.405z"/>
		<path d="M808.826,226.979c-1.219-1.218-2.912-1.923-4.637-1.917c-1.727-0.006-3.42,0.7-4.639,1.917
			c-1.217,1.218-1.924,2.913-1.916,4.638c-0.008,1.725,0.697,3.419,1.916,4.638s2.912,1.924,4.637,1.916
			c1.727,0.008,3.42-0.698,4.639-1.917c1.217-1.217,1.924-2.912,1.918-4.638C810.75,229.891,810.043,228.197,808.826,226.979z"/>
		<path d="M848.399,266.553c-1.217-1.219-2.912-1.924-4.637-1.917c-1.727-0.006-3.422,0.699-4.639,1.917
			c-1.225,1.224-1.924,2.912-1.916,4.638c-0.008,1.725,0.691,3.412,1.916,4.637c1.219,1.219,2.912,1.924,4.639,1.918
			c1.725,0.006,3.418-0.699,4.637-1.918c1.219-1.217,1.924-2.912,1.918-4.637C850.323,269.465,849.619,267.771,848.399,266.553z"/>
		<path d="M887.973,306.125c-1.219-1.219-2.912-1.922-4.637-1.916c-1.727-0.006-3.42,0.701-4.637,1.918
			c-1.225,1.225-1.926,2.912-1.92,4.637c-0.006,1.727,0.693,3.414,1.918,4.639s2.912,1.924,4.639,1.916
			c1.725,0.008,3.414-0.691,4.639-1.916c1.217-1.217,1.922-2.912,1.916-4.639C889.897,309.039,889.19,307.345,887.973,306.125z"/>
		<path d="M927.547,345.699c-1.219-1.217-2.912-1.922-4.639-1.916c-1.725-0.006-3.42,0.699-4.639,1.916
			c-1.223,1.223-1.922,2.914-1.916,4.639c-0.006,1.727,0.693,3.412,1.916,4.637c1.219,1.219,2.914,1.926,4.639,1.918
			c1.727,0.008,3.42-0.699,4.639-1.918c1.217-1.217,1.924-2.91,1.918-4.637C929.471,348.613,928.766,346.918,927.547,345.699z"/>
		<path d="M769.252,266.553c-1.217-1.219-2.912-1.924-4.639-1.916c-1.725-0.008-3.418,0.696-4.637,1.916
			c-1.217,1.218-1.922,2.912-1.916,4.636c-0.006,1.725,0.697,3.42,1.916,4.639c1.217,1.217,2.912,1.922,4.637,1.916
			c1.727,0.006,3.42-0.699,4.639-1.916c1.219-1.219,1.922-2.912,1.916-4.637C771.176,269.465,770.471,267.771,769.252,266.553z"/>
		<path d="M808.826,306.125c-1.219-1.217-2.912-1.922-4.639-1.916c-1.725-0.006-3.418,0.697-4.637,1.916
			c-1.219,1.221-1.922,2.912-1.916,4.639c-0.006,1.727,0.699,3.422,1.916,4.639c1.219,1.219,2.914,1.924,4.639,1.916
			c1.727,0.006,3.418-0.697,4.637-1.916s1.924-2.912,1.916-4.637C810.75,309.039,810.045,307.345,808.826,306.125z"/>
		<path d="M848.399,345.699c-1.219-1.219-2.912-1.922-4.639-1.916c-1.725-0.006-3.418,0.699-4.637,1.918
			c-1.225,1.225-1.922,2.91-1.916,4.635c-0.006,1.727,0.697,3.42,1.916,4.639s2.914,1.924,4.639,1.918
			c1.725,0.006,3.42-0.697,4.637-1.916c1.221-1.219,1.922-2.914,1.916-4.639C850.323,348.613,849.617,346.918,848.399,345.699z"/>
		<path d="M887.973,385.273c-1.217-1.217-2.912-1.924-4.637-1.916c-1.727-0.008-3.42,0.697-4.639,1.916
			c-1.219,1.217-1.922,2.912-1.916,4.637c-0.006,1.727,0.699,3.422,1.916,4.639c1.219,1.219,2.914,1.924,4.639,1.916
			c1.727,0.008,3.418-0.697,4.637-1.916s1.924-2.91,1.916-4.637C889.897,388.187,889.192,386.492,887.973,385.273z"/>
	</g>
	<path d="M1026.479,335.191"/>
	<path d="M947.33,128.047c-7.715-7.716-18.346-11.284-29.164-9.792c-0.297,0.041-0.424-0.046-0.49-0.115
		c-0.115-0.115-0.156-0.283-0.123-0.516c1.877-13.659-4.307-26.763-16.135-34.194c-10.984-6.902-25.18-6.902-36.162-0.003
		c-11.834,7.434-18.02,20.538-16.141,34.197c0.031,0.233-0.01,0.401-0.121,0.517c-0.07,0.068-0.197,0.156-0.492,0.115
		c-10.82-1.493-21.451,2.075-29.166,9.791l27.371,3.202c4.312,0.596,8.523-0.802,11.557-3.833c3.039-3.037,4.439-7.256,3.846-11.579
		c-1.168-8.485,2.711-16.648,10.121-21.304c6.643-4.172,15.564-4.171,22.207,0.001c7.408,4.656,11.285,12.818,10.119,21.302
		c-0.594,4.322,0.805,8.542,3.844,11.577c0,0,0,0.001,0.002,0.001c3.031,3.032,7.242,4.43,11.557,3.834
		c6.717-0.927,13.312,1.287,18.098,6.072"/>
	<line fill="none" x1="866.026" y1="100.3" x2="869" y2="91.674"/>
	<path d="M886.285,91.674"/>
</g>
<g id="Layer_3_1_">
	<path fill="none" stroke="#000000" stroke-width="12" stroke-miterlimit="10" d="M938.584,129.666
		c10.25,3.25,4.658,10.396,4.658,10.396s-49.805,29.764-0.908,58.535c0,0-24.066,22.479-9.158,66.04c0,0,16.936,37.737,57.158,29.03
		c0,0-0.25,36.516,32,25.166c0,0,11.666-1.516-1.25,13.084"/>
</g>
</svg>
